<svg xmlns="http://www.w3.org/2000/svg" viewBox="0 0 1200 630" role="img">
  <defs>
    <linearGradient id="bg" x1="0" y1="0" x2="1" y2="1">
      <stop offset="0" stop-color="#123449"/>
      <stop offset="1" stop-color="#0b7285"/>
    </linearGradient>
  </defs>
  <rect width="1200" height="630" fill="url(#bg)"/>
  <circle cx="140" cy="500" r="230" fill="#ffffff" opacity="0.04"/>
  <circle cx="1070" cy="130" r="190" fill="#ffffff" opacity="0.05"/>
  <circle cx="960" cy="520" r="90" fill="#ffffff" opacity="0.04"/>
  <circle cx="72" cy="74" r="10" fill="#f59f00"/>
  <text x="94" y="86" font-family="Segoe UI, Roboto, Arial, sans-serif" font-size="34" font-weight="700" fill="#f59f00">TechSaathi</text>

  <rect x="520" y="270" width="160" height="230" rx="24" fill="#ffffff" opacity="0.96"/>
  <rect x="534" y="294" width="132" height="182" rx="12" fill="#0f2b3c"/>
  <path d="M600 120 c-48 0 -80 34 -80 74 c0 54 80 116 80 116 s80 -62 80 -116 c0 -40 -32 -74 -80 -74 z" fill="#f59f00"/>
  <circle cx="600" cy="196" r="32" fill="#0f2b3c"/>
  <text x="600" y="208" text-anchor="middle" font-size="36" font-weight="800" fill="#f59f00" font-family="Segoe UI, Roboto, Arial, sans-serif">?</text>
  <text x="600" y="560" text-anchor="middle" font-family="Segoe UI, Roboto, Arial, sans-serif" font-size="48" font-weight="700" fill="#ffffff">Lost Phone Checklist</text>
</svg>
